<?xml version="1.0" standalone="no"?>
<!DOCTYPE svg PUBLIC "-//W3C//DTD SVG 20010904//EN"
 "http://www.w3.org/TR/2001/REC-SVG-20010904/DTD/svg10.dtd">
<svg version="1.0" xmlns="http://www.w3.org/2000/svg"
 width="471.000000pt" height="260.000000pt" viewBox="0 0 471.000000 260.000000"
 preserveAspectRatio="xMidYMid meet">

<g transform="translate(0.000000,260.000000) scale(0.100000,-0.100000)"
fill="#000000" stroke="none">
<path d="M1165 2594 c-90 -12 -94 -14 -120 -58 -25 -42 -25 -46 -25 -258 0
-273 -10 -258 174 -258 121 0 128 1 151 25 22 21 25 33 25 99 0 85 11 122 38
130 30 10 56 -4 135 -72 41 -34 110 -90 154 -125 189 -146 322 -259 326 -275
7 -32 -22 -68 -104 -133 -46 -35 -99 -78 -118 -95 -36 -30 -202 -161 -308
-241 -90 -70 -123 -54 -123 56 0 93 -9 130 -34 143 -14 8 -127 12 -358 13
-406 2 -376 -9 -380 134 -4 139 9 143 -254 -70 -66 -53 -135 -107 -154 -120
-33 -22 -63 -47 -131 -109 -16 -14 -31 -36 -34 -50 -8 -36 0 -43 225 -221 36
-28 92 -75 125 -103 102 -89 174 -138 198 -134 20 3 22 10 27 97 8 132 6 131
214 131 124 0 167 -3 182 -14 18 -14 19 -33 25 -323 7 -334 13 -380 57 -411
66 -46 171 -57 216 -21 23 18 26 27 26 85 l0 64 -49 24 c-27 14 -51 32 -55 41
-22 59 14 108 89 119 46 7 55 14 153 116 85 89 117 115 177 145 40 20 102 41
137 46 89 15 233 4 326 -26 94 -30 150 -73 213 -163 83 -119 43 -108 405 -115
175 -4 410 -7 524 -7 l207 0 36 27 c19 16 47 51 62 79 l26 51 2 481 c2 537 -2
505 73 522 58 14 787 13 817 -1 45 -20 59 -77 32 -129 -18 -35 3 -32 -260 -34
-147 -1 -216 -5 -232 -13 -29 -17 -38 -104 -29 -283 5 -108 10 -140 25 -160
l18 -25 229 -5 229 -5 23 -45 24 -45 -5 -359 -5 -359 24 -24 c20 -20 30 -23
57 -17 47 10 74 34 92 80 15 36 16 123 13 780 -3 812 -1 787 -64 829 -28 19
-52 20 -520 23 l-491 3 -24 25 c-22 24 -23 31 -29 247 -6 243 -11 266 -68 282
-27 8 -2279 16 -2337 9z"/>
<path d="M3895 806 c-103 -26 -189 -85 -247 -171 -52 -77 -62 -113 -62 -220 0
-92 2 -105 32 -166 128 -263 446 -316 637 -106 73 80 100 154 100 272 0 98
-17 153 -75 238 -51 75 -139 131 -242 152 -80 17 -77 17 -143 1z m125 -311
c102 -53 38 -205 -74 -174 -77 21 -96 107 -36 162 34 30 67 34 110 12z"/>
<path d="M1799 800 c-118 -21 -238 -120 -280 -231 -34 -91 -34 -219 1 -307
105 -268 448 -336 638 -127 85 93 105 141 106 260 0 115 -10 160 -57 232 -83
128 -254 201 -408 173z m138 -305 c30 -21 46 -83 32 -122 -15 -44 -74 -69
-123 -53 -20 6 -43 21 -51 33 -17 25 -20 80 -5 107 24 45 106 64 147 35z"/>
<path d="M2469 499 c-50 -19 -46 -97 7 -130 46 -28 200 -38 589 -38 222 -1
306 3 325 12 23 11 25 18 25 77 0 59 -2 66 -25 77 -31 16 -879 17 -921 2z"/>
</g>
</svg>
