<?xml version="1.0" standalone="no"?>
<!DOCTYPE svg PUBLIC "-//W3C//DTD SVG 20010904//EN"
 "http://www.w3.org/TR/2001/REC-SVG-20010904/DTD/svg10.dtd">
<svg version="1.0" xmlns="http://www.w3.org/2000/svg"
 width="125.000000pt" height="100.000000pt" viewBox="0 0 125.000000 100.000000"
 preserveAspectRatio="xMidYMid meet">

<g transform="translate(0.000000,100.000000) scale(0.100000,-0.100000)"
fill="#000000" stroke="none">
<path d="M277 743 c-4 -3 -7 -35 -7 -70 l0 -63 45 0 c43 0 45 1 45 30 0 17 4
30 9 30 8 0 161 -118 161 -125 0 -2 -34 -31 -76 -64 -72 -57 -96 -71 -93 -53
1 4 1 17 0 30 -1 21 -4 22 -96 22 l-95 0 0 40 0 41 -81 -67 c-79 -65 -80 -68
-61 -83 11 -9 48 -38 81 -64 l61 -48 0 35 0 36 50 0 50 0 0 -88 c0 -55 4 -92
12 -100 14 -14 68 -16 68 -3 0 5 3 16 6 24 3 9 -3 16 -16 20 -26 7 -22 30 6
35 10 2 33 17 50 33 59 57 141 56 194 -2 l27 -28 138 -2 c123 -1 140 1 152 17
9 12 13 56 13 146 l0 128 115 0 c108 0 115 -1 115 -20 0 -18 -7 -20 -65 -20
l-66 0 3 -62 3 -63 63 0 62 0 0 -103 c0 -82 3 -104 15 -108 8 -4 22 -1 30 6
12 10 15 47 15 209 0 140 -3 200 -12 209 -8 8 -55 12 -145 12 l-132 0 -3 68
-3 67 -316 3 c-173 1 -318 -1 -322 -5z"/>
<path d="M421 271 c-55 -52 -37 -137 35 -167 64 -27 134 24 134 96 -1 88 -104
131 -169 71z m92 -65 c6 -15 -11 -36 -29 -36 -14 0 -23 20 -16 38 6 16 39 15
45 -2z"/>
<path d="M951 269 c-42 -42 -43 -95 -2 -141 24 -27 36 -33 71 -33 56 0 100 46
100 104 0 55 -46 101 -100 101 -30 0 -46 -7 -69 -31z m95 -60 c3 -6 -1 -18 -9
-27 -13 -12 -19 -13 -31 -3 -8 7 -12 19 -9 27 6 17 39 19 49 3z"/>
<path d="M628 195 l4 -25 129 0 129 0 0 25 0 25 -134 0 -133 0 5 -25z"/>
</g>
</svg>
