<?xml version="1.0" standalone="no"?>
<!DOCTYPE svg PUBLIC "-//W3C//DTD SVG 20010904//EN"
 "http://www.w3.org/TR/2001/REC-SVG-20010904/DTD/svg10.dtd">
<svg version="1.0" xmlns="http://www.w3.org/2000/svg"
 width="500.000000pt" height="176.000000pt" viewBox="0 0 500.000000 176.000000"
 preserveAspectRatio="xMidYMid meet">

<g transform="translate(0.000000,176.000000) scale(0.100000,-0.100000)"
fill="#000000" stroke="none">
<path d="M2032 1498 c-7 -7 -12 -38 -12 -70 l0 -58 45 0 c44 0 45 1 45 31 0
22 4 30 15 27 18 -3 154 -109 155 -120 0 -10 -146 -128 -159 -128 -6 0 -11 14
-11 30 l0 30 -95 0 -95 0 0 30 c0 17 -5 30 -10 30 -13 0 -140 -101 -140 -111
0 -8 134 -119 144 -119 3 0 6 14 6 30 0 29 1 30 50 30 l50 0 0 -81 c0 -96 10
-119 50 -119 25 0 30 4 30 25 0 16 -6 25 -16 25 -22 0 -13 34 10 38 11 2 30
17 43 33 50 59 156 59 207 -1 l25 -30 137 0 c119 0 139 2 150 17 9 13 13 55
14 144 0 106 3 128 16 133 23 9 197 7 212 -2 7 -5 10 -16 6 -25 -5 -13 -20
-17 -70 -17 l-64 0 0 -60 0 -59 68 -3 67 -3 3 -108 c2 -93 5 -108 18 -103 9 3
18 6 20 6 2 0 4 94 4 209 0 181 -2 210 -16 215 -9 3 -71 6 -139 6 l-124 0 -3
68 -3 67 -310 3 c-233 2 -314 -1 -323 -10z"/>
<path d="M2210 1053 c-50 -19 -79 -78 -61 -125 26 -68 100 -89 156 -44 25 20
30 31 30 70 0 35 -6 51 -25 71 -26 25 -73 39 -100 28z m55 -83 c8 -13 -13 -40
-30 -40 -15 0 -28 27 -19 41 7 12 41 11 49 -1z"/>
<path d="M2704 1026 c-22 -22 -34 -44 -34 -61 0 -57 45 -104 98 -105 44 0 68
14 88 52 22 42 11 90 -27 122 -43 37 -83 34 -125 -8z m92 -57 c3 -6 -1 -18
-10 -27 -15 -15 -17 -15 -32 0 -19 19 -11 38 16 38 10 0 22 -5 26 -11z"/>
<path d="M2382 958 c3 -22 7 -23 126 -26 l122 -3 0 26 0 25 -126 0 c-124 0
-125 0 -122 -22z"/>
<path d="M437 623 c-4 -3 -7 -69 -7 -145 0 -118 2 -140 16 -145 22 -8 34 14
34 69 0 45 1 47 38 58 56 18 97 46 110 75 17 36 15 52 -8 75 -17 17 -33 20
-98 20 -43 0 -82 -3 -85 -7z m137 -39 c9 -3 16 -12 16 -19 0 -17 -48 -52 -83
-60 -26 -7 -27 -6 -27 39 l0 46 39 0 c22 0 46 -3 55 -6z"/>
<path d="M695 618 c-3 -8 -4 -75 -3 -149 3 -126 4 -134 23 -134 19 0 20 7 20
145 0 130 -2 145 -18 148 -9 2 -19 -3 -22 -10z"/>
<path d="M836 609 c-57 -44 -20 -110 68 -123 61 -9 91 -35 82 -69 -7 -30 -23
-36 -114 -45 -50 -5 -67 -11 -67 -22 0 -31 128 -34 187 -4 37 19 56 81 38 123
-12 30 -42 46 -130 68 -20 5 -36 16 -38 26 -3 15 5 17 60 17 70 0 94 10 85 34
-10 26 -136 22 -171 -5z"/>
<path d="M1084 615 c-9 -23 5 -35 41 -35 l34 0 3 -122 c3 -115 4 -123 23 -123
19 0 20 8 23 123 l3 122 27 0 c36 0 56 14 49 34 -9 22 -195 24 -203 1z"/>
<path d="M1392 610 c-87 -53 -82 -218 7 -265 39 -19 104 -19 142 1 36 18 68
82 69 134 0 113 -124 187 -218 130z m129 -49 c24 -25 29 -38 29 -79 0 -40 -6
-57 -26 -81 -74 -89 -185 32 -128 140 28 54 82 63 125 20z"/>
<path d="M1676 614 c-8 -20 -8 -232 0 -261 4 -14 14 -23 25 -23 18 0 19 9 19
115 0 63 4 115 9 115 5 0 15 -7 22 -17 8 -9 28 -22 45 -29 34 -14 44 -44 44
-136 0 -42 3 -48 20 -48 20 0 20 5 18 147 -3 127 -5 148 -19 151 -12 2 -18 -8
-23 -38 -8 -51 -24 -51 -80 0 -46 43 -70 50 -80 24z"/>
<path d="M2117 624 c-4 -4 -7 -70 -7 -146 l0 -138 26 -10 c28 -11 94 -13 118
-4 9 3 16 15 16 25 0 16 -8 19 -49 19 -28 0 -53 6 -59 13 -6 7 -13 64 -14 127
-3 105 -11 134 -31 114z"/>
<path d="M2369 607 c-66 -44 -86 -125 -49 -202 67 -138 260 -88 260 68 0 125
-115 199 -211 134z m133 -48 c10 -11 20 -36 24 -55 22 -116 -102 -186 -154
-87 -17 31 -15 105 4 131 32 45 93 50 126 11z"/>
<path d="M2704 620 c-30 -12 -62 -56 -70 -96 -8 -44 28 -117 76 -156 43 -34
141 -55 177 -39 22 10 23 16 23 100 0 102 -6 111 -77 111 -46 0 -68 -13 -60
-34 4 -11 19 -16 47 -16 l40 0 0 -54 c0 -30 -4 -58 -10 -61 -17 -11 -90 15
-121 43 -23 21 -32 39 -36 72 -7 71 9 84 109 90 75 5 83 7 83 25 0 18 -7 20
-80 22 -44 1 -90 -2 -101 -7z"/>
<path d="M2986 578 c-8 -68 -8 -212 0 -232 3 -9 15 -16 25 -16 18 0 19 9 19
150 0 140 -1 150 -19 150 -15 0 -19 -10 -25 -52z"/>
<path d="M3125 605 c-52 -51 -25 -92 77 -120 69 -19 73 -22 76 -51 4 -42 -14
-53 -93 -58 -37 -3 -72 -9 -78 -15 -21 -21 7 -31 84 -31 76 0 82 2 110 29 22
23 29 39 29 69 0 57 -24 81 -100 101 -45 11 -66 22 -68 34 -3 15 5 17 61 17
44 0 68 5 77 15 21 25 0 35 -76 35 -66 0 -78 -3 -99 -25z"/>
<path d="M3378 618 c-9 -25 4 -38 38 -38 l34 0 0 -109 c0 -123 4 -141 31 -141
18 0 19 9 19 124 l0 125 38 3 c29 2 37 7 37 23 0 18 -8 20 -96 23 -72 2 -98
-1 -101 -10z"/>
<path d="M3647 623 c-4 -3 -7 -71 -7 -150 0 -136 1 -143 20 -143 19 0 20 7 20
150 0 118 -3 150 -13 150 -8 0 -17 -3 -20 -7z"/>
<path d="M3794 596 c-30 -30 -34 -40 -34 -86 0 -67 31 -124 85 -155 71 -41
145 -43 145 -5 0 14 -10 20 -44 25 -90 14 -145 78 -131 151 7 42 29 54 97 54
60 0 84 11 75 34 -5 13 -22 16 -83 16 -73 0 -77 -1 -110 -34z"/>
<path d="M4067 610 c-57 -45 -22 -110 65 -124 57 -9 88 -31 88 -61 0 -32 -23
-43 -106 -50 -38 -4 -72 -9 -76 -13 -31 -30 108 -49 170 -23 58 25 81 106 42
149 -11 12 -46 29 -78 37 -84 24 -84 24 -80 38 3 7 31 14 74 17 61 4 69 7 69
25 0 18 -8 20 -71 23 -59 2 -75 -1 -97 -18z"/>
</g>
</svg>
